<svg width="32" height="32" viewBox="0 0 32 32" fill="none" xmlns="http://www.w3.org/2000/svg">
<path d="M13.3346 24.0003C15.7013 23.9998 17.9997 23.2076 19.864 21.7497L25.7253 27.611L27.6106 25.7257L21.7493 19.8643C23.208 17.9999 24.0007 15.7009 24.0013 13.3337C24.0013 7.45233 19.216 2.66699 13.3346 2.66699C7.4533 2.66699 2.66797 7.45233 2.66797 13.3337C2.66797 19.215 7.4533 24.0003 13.3346 24.0003ZM13.3346 5.33366C17.7466 5.33366 21.3346 8.92166 21.3346 13.3337C21.3346 17.7457 17.7466 21.3337 13.3346 21.3337C8.92264 21.3337 5.33464 17.7457 5.33464 13.3337C5.33464 8.92166 8.92264 5.33366 13.3346 5.33366Z" fill="white"/>
<path d="M15.2171 11.4481C15.7224 11.9548 16.0011 12.6241 16.0011 13.3334H18.6677C18.6689 12.6327 18.5312 11.9386 18.2625 11.2914C17.9938 10.6442 17.5995 10.0567 17.1024 9.56278C15.0837 7.54678 11.5837 7.54678 9.56641 9.56278L11.4491 11.4508C12.4624 10.4401 14.2091 10.4428 15.2171 11.4481Z" fill="white"/>
</svg>
